<?xml version="1.0" encoding="UTF-8"?>
<svg width="662px" height="20px" viewBox="0 0 662 20" version="1.1" xmlns="http://www.w3.org/2000/svg" xmlns:xlink="http://www.w3.org/1999/xlink">
    <title>parenthesis-lg</title>
    <defs>
        <linearGradient x1="-27.0164835%" y1="100.000013%" x2="118.38779%" y2="100.000013%" id="linearGradient-1">
            <stop stop-color="#DA683E" offset="0%"></stop>
            <stop stop-color="#E8D67F" offset="23.6578241%"></stop>
            <stop stop-color="#A6E0D4" offset="44.6036385%"></stop>
            <stop stop-color="#5D83B9" offset="62.9832448%"></stop>
            <stop stop-color="#6354AB" offset="81.362851%"></stop>
            <stop stop-color="#341440" offset="100%"></stop>
        </linearGradient>
    </defs>
    <g id="assets" stroke="none" stroke-width="1" fill="none" fill-rule="evenodd">
        <path d="M331.013514,0 C336.449357,4.21495456 343.206097,6.7134318 350.528059,6.71543629 L610.599708,6.71543749 C635.537592,6.71543749 651.736394,9.7169018 659.196112,15.7198304 C659.614217,16.012093 659.998344,16.3520998 660.34172,16.7318761 C660.450586,16.8377645 660.55618,16.9437493 660.659363,17.0505621 L660.612267,17.0498778 C661.284633,17.8901872 661.769313,18.8964271 662.000041,20.0001915 L656.665803,20.0003552 C655.76943,18.5973735 653.255047,17.4012154 647.233768,17.054923 C647.229694,17.0535734 647.225623,17.0522245 647.221554,17.0508761 L350.528069,17.0505621 L350.198879,17.0492052 C343.285109,16.9936789 336.763965,15.236038 331.009308,6.9946487 C325.161024,15.2860126 318.520903,17.0505621 311.481538,17.0505621 L14.772341,17.0509317 C8.74495274,17.399248 6.23057005,18.595406 5.33419706,19.9983878 L-4.14180503e-05,19.9982241 C0.230502972,18.8953409 0.714593716,17.8898266 1.38612265,17.0499234 L1.35024401,17.0505621 C1.42529862,16.9734588 1.50160294,16.8967869 1.57915696,16.8205464 C1.98326327,16.3561158 2.44748929,15.9491716 2.95883514,15.6115973 C10.518642,9.68100466 26.6689658,6.71543749 51.4098994,6.71543749 L311.481538,6.71543749 C318.733663,6.71543749 325.431661,4.26635766 330.841726,0.125694562 L331.004704,0 Z" id="parenthesis-lg" fill="url(#linearGradient-1)"></path>
    </g>
</svg>