<?xml version="1.0" encoding="UTF-8"?>
<svg width="530px" height="118px" viewBox="0 0 530 118" version="1.1" xmlns="http://www.w3.org/2000/svg" xmlns:xlink="http://www.w3.org/1999/xlink">
    <!-- Generator: Sketch 43.2 (39069) - http://www.bohemiancoding.com/sketch -->
    <title>skowak-logotype-hybrid</title>
    <desc>Created with Sketch.</desc>
    <defs></defs>
    <g id="color" stroke="none" stroke-width="1" fill="none" fill-rule="evenodd">
        <g id="skowak-logotype-hybrid">
            <path d="M309.223229,22.7743865 L309.233726,22.6409111 L331.261793,80.8332684 L350.839125,22.6332799 L366.186268,22.6332799 L331.364611,113.393086 L309.842485,60.2676349 L288.729865,113.393086 L253.23199,22.6409111 L267.599796,22.6409111 L288.627047,81.8351089 L309.205194,22.6332799 L309.223229,22.7743865 Z M59.2512427,27.0625353 L53.9164262,39.0044695 L44.9778915,36.3472441 C31.4911188,33.3346783 25.7140068,36.3169756 22.4180994,38.5145069 C20.4577127,40.1493463 15.7196716,46.095622 22.081106,51.6135718 C33.7697336,58.6023879 32.4207827,55.8899829 47.5346627,62.9492409 C61.0562294,70.3002458 63.6382164,80.3798964 61.4209798,91.06026 C61.4209798,91.06026 59.9625646,104.691161 41.8214127,109.246796 C28.7380938,112.254666 12.5565468,111.228562 0,103.391936 L6.40050437,90.5652099 C6.40050437,90.5652099 7.70376377,91.4447555 13.3779193,93.6556532 C23.7574722,97.6178151 35.7131143,96.7889486 41.9832634,92.8674864 C47.2246444,90.6235202 53.1521314,80.57459 38.0839918,73.600058 C38.0839918,73.600058 31.3175398,70.7084175 21.4939087,66.7867597 C18.3933349,65.1217869 0.477952999,59.0958726 5.21658051,40.7944768 C6.66385376,33.6520582 12.7135107,26.4411545 22.6086111,23.2215922 C28.3424589,21.2343231 41.8214127,20.1430605 59.2512427,27.0625353 Z M82.2660931,22.2408598 L98.3887054,22.2408598 L98.3887054,57.2695743 L131.86769,22.2408598 L150.487018,22.2408598 L114.924808,60.4905308 L151.691686,109.8437 L133.472473,109.8437 L103.450222,70.5351561 L98.41565,75.3332287 L98.41565,109.720115 L82.2660931,109.720115 L82.2660931,22.2408598 Z M405.245477,18.2228335 L444.039841,109.940258 C416.047298,121.62618 389.851339,119.704094 365.73889,109.940258 L405.245477,18.2228335 Z M405.144981,50.7355057 L380.390286,107.206922 C395.777458,111.455817 412.828855,112.367257 428.38763,107.206922 L405.144981,50.7355057 Z M460.574407,22.2408598 L476.697019,22.2408598 L476.697019,57.2695743 L510.176004,22.2408598 L528.795332,22.2408598 L493.233122,60.4905308 L530,109.8437 L511.780787,109.8437 L481.758536,70.5351561 L476.723964,75.3332287 L476.723964,109.720115 L460.574407,109.720115 L460.574407,22.2408598 Z M183.848881,15.027608 C179.703367,15.027608 176.342764,11.6635633 176.342764,7.51380398 C176.342764,3.36404463 179.703367,0 183.848881,0 C187.994395,0 191.354998,3.36404463 191.354998,7.51380398 C191.354998,11.6635633 187.994395,15.027608 183.848881,15.027608 Z M217.075961,15.027608 C212.930446,15.027608 209.569843,11.6635633 209.569843,7.51380398 C209.569843,3.36404463 212.930446,0 217.075961,0 C221.221475,0 224.582078,3.36404463 224.582078,7.51380398 C224.582078,11.6635633 221.221475,15.027608 217.075961,15.027608 Z" id="skowak-logo-rainbowish" fill="#454149"></path>
            <g id="Group-18-Copy" transform="translate(142.000000, 8.000000)">
                <path d="M58.1079994,102.534527 C33.5908997,102.534527 13.7158634,82.605085 13.7158634,58.0208723 C13.7158634,33.4366596 33.5908997,13.5072175 58.1079994,13.5072175 C82.6250991,13.5072175 102.500135,33.4366596 102.500135,58.0208723 C102.500135,82.605085 82.6250991,102.534527 58.1079994,102.534527 Z M58.3066219,88.5928903 C75.144988,88.5928903 88.7951807,74.9053316 88.7951807,58.0208723 C88.7951807,41.136413 75.144988,27.4488543 58.3066219,27.4488543 C41.4682559,27.4488543 27.8180632,41.136413 27.8180632,58.0208723 C27.8180632,74.9053316 41.4682559,88.5928903 58.3066219,88.5928903 Z" id="Combined-Shape" transform="translate(58.107999, 58.020872) rotate(22.000000) translate(-58.107999, -58.020872) "></path>
                <path d="M69.607021,29.7153963 C61.7949991,26.5934432 53.4514658,26.9394987 46.2794191,30.0284152 L40.7834103,17.0742387 C51.244146,12.620183 63.3970349,12.1652441 74.7627316,16.7651433 C74.781033,16.7725502 69.607021,29.7153963 69.607021,29.7153963 Z" id="Combined-Shape" fill="#F8E81C"></path>
                <path d="M95.4149367,40.0336278 C87.6029148,36.9116747 79.2593816,37.2577302 72.0873348,40.3466467 L66.591326,27.3924702 C77.0520617,22.9384145 89.2049506,22.4834756 100.570647,27.0833748 C100.588949,27.0907817 95.4149367,40.0336278 95.4149367,40.0336278 Z" id="Combined-Shape" fill="#F5A623" transform="translate(83.581011, 32.091651) rotate(45.000000) translate(-83.581011, -32.091651) "></path>
                <path d="M106.398813,65.6646962 C98.586791,62.542743 90.2432577,62.8887985 83.071211,65.977715 L77.5752022,53.0235385 C88.0359379,48.5694828 100.188827,48.1145439 111.554524,52.7144432 C111.572825,52.72185 106.398813,65.6646962 106.398813,65.6646962 Z" id="Combined-Shape" fill="#D92E43" transform="translate(94.564887, 57.722719) rotate(90.000000) translate(-94.564887, -57.722719) "></path>
                <path d="M95.9990146,91.5167708 C88.1869928,88.3948176 79.8434595,88.7408731 72.6714127,91.8297897 L67.175404,78.8756132 C77.6361396,74.4215575 89.7890285,73.9666185 101.154725,78.5665178 C101.173027,78.5739247 95.9990146,91.5167708 95.9990146,91.5167708 Z" id="Combined-Shape" fill="#B03BD9" transform="translate(84.165089, 83.574794) rotate(135.000000) translate(-84.165089, -83.574794) "></path>
                <path d="M44.0760195,40.5265677 C36.2639977,37.4046146 27.9204644,37.7506701 20.7484176,40.8395866 L15.2524089,27.8854101 C25.7131445,23.4313544 37.8660334,22.9764155 49.2317302,27.5763147 C49.2500315,27.5837216 44.0760195,40.5265677 44.0760195,40.5265677 Z" id="Combined-Shape" fill="#3880D5" transform="translate(32.242094, 32.584591) scale(-1, 1) rotate(-314.000000) translate(-32.242094, -32.584591) "></path>
                <path d="M33.5579433,66.2906398 C25.7459215,63.1686867 17.4023882,63.5147422 10.2303414,66.6036587 L4.73433266,53.6494822 C15.1950683,49.1954265 27.3479572,48.7404876 38.713654,53.3403868 C38.7319553,53.3477937 33.5579433,66.2906398 33.5579433,66.2906398 Z" id="Combined-Shape" fill="#72DDF6" transform="translate(21.724018, 58.348663) scale(-1, 1) rotate(-269.000000) translate(-21.724018, -58.348663) "></path>
                <path d="M44.333836,92.0101149 C36.5218141,88.8881618 28.1782809,89.2342173 21.0062341,92.3231338 L15.5102253,79.3689573 C25.970961,74.9149016 38.1238499,74.4599627 49.4895466,79.059862 C49.507848,79.0672688 44.333836,92.0101149 44.333836,92.0101149 Z" id="Combined-Shape" fill="#5A9614" transform="translate(32.499910, 84.068138) scale(-1, 1) rotate(-224.000000) translate(-32.499910, -84.068138) "></path>
                <path d="M70.1228039,102.474658 C62.310782,99.3527048 53.9672487,99.6987602 46.795202,102.787677 L41.2991932,89.8335003 C51.7599289,85.3794446 63.9128178,84.9245056 75.2785145,89.5244049 C75.2968159,89.5318118 70.1228039,102.474658 70.1228039,102.474658 Z" id="Combined-Shape" fill="#30EEA4" transform="translate(58.288878, 94.532681) scale(-1, 1) rotate(-179.000000) translate(-58.288878, -94.532681) "></path>
            </g>
        </g>
    </g>
</svg>