<?xml version="1.0" encoding="UTF-8"?>
<svg width="375px" height="213px" viewBox="0 0 375 213" version="1.1" xmlns="http://www.w3.org/2000/svg" xmlns:xlink="http://www.w3.org/1999/xlink">
    <title>skowak-logo-gradient</title>
    <defs>
        <linearGradient x1="50%" y1="10.6924874%" x2="50%" y2="124.504276%" id="linearGradient-1">
            <stop stop-color="#FFFFFF" offset="0%"></stop>
            <stop stop-color="#6F4A8E" offset="100%"></stop>
        </linearGradient>
        <linearGradient x1="50%" y1="12.6926788%" x2="50%" y2="124.539979%" id="linearGradient-2">
            <stop stop-color="#FFFFFF" offset="0%"></stop>
            <stop stop-color="#6F4A8E" offset="100%"></stop>
        </linearGradient>
    </defs>
    <g id="z" stroke="none" stroke-width="1" fill="none" fill-rule="evenodd">
        <g id="skowak-logo-gradient" fill-rule="nonzero">
            <path d="M166.897322,28.4629136 C163.677985,27.3317268 161.774648,25.9325171 161.774648,24.4178404 C161.774648,22.0778101 166.317398,20.0133685 173.237223,18.7870287 C171.656529,18.1101109 170.746479,17.3158011 170.746479,16.4662826 C170.746479,13.9912549 178.471143,11.9848485 188,11.9848485 C197.528857,11.9848485 205.253521,13.9912549 205.253521,16.4662826 C205.253521,17.3158011 204.343471,18.1101109 202.762777,18.7870287 C209.682602,20.0133685 214.225352,22.0778101 214.225352,24.4178404 C214.225352,25.9325171 212.322015,27.3317268 209.102679,28.4629136 C218.86635,30.2082418 225.267606,33.1312149 225.267606,36.4425239 C225.267606,37.7688042 224.240686,39.032786 222.382107,40.1837521 C231.405624,42.428025 237,45.5490331 237,49 C237,52.4912349 231.274305,55.644766 222.064834,57.8944515 C224.123472,59.0959167 225.267606,60.4264348 225.267606,61.8263621 C225.267606,65.1207944 218.931434,68.0308392 209.251704,69.7791944 C212.38067,70.9009739 214.225352,72.2802204 214.225352,73.7713758 C214.225352,76.0381719 209.962494,78.0463595 203.405418,79.2846028 C204.587527,79.8916013 205.253521,80.5779324 205.253521,81.3046663 C205.253521,83.779694 197.528857,85.7861004 188,85.7861004 C178.471143,85.7861004 170.746479,83.779694 170.746479,81.3046663 C170.746479,80.5779324 171.412473,79.8916013 172.594582,79.2846028 C166.037506,78.0463595 161.774648,76.0381719 161.774648,73.7713758 C161.774648,72.2802204 163.619331,70.9009739 166.748296,69.7791944 C157.068566,68.0308392 150.732394,65.1207944 150.732394,61.8263621 C150.732394,60.4264348 151.876528,59.0959167 153.935168,57.8944519 C144.725695,55.644766 139,52.4912349 139,49 C139,45.5490331 144.594376,42.428025 153.617892,40.1837525 C151.759314,39.032786 150.732394,37.7688042 150.732394,36.4425239 C150.732394,33.1312149 157.13365,30.2082418 166.897322,28.4629136 Z M202.197917,30.1460073 C198.10586,30.8316937 193.231841,31.2296202 188,31.2296202 C182.768159,31.2296202 177.89414,30.8316937 173.802084,30.1460073 C167.46764,31.3097729 163.329895,33.2312772 163.329895,35.4046485 C163.329895,38.955549 174.375077,41.8341228 188,41.8341228 C201.624923,41.8341228 212.670105,38.955549 212.670105,35.4046485 C212.670105,33.2312772 208.53236,31.3097729 202.197917,30.1460073 Z M177.656479,20.053433 C173.398463,20.8779628 170.639556,22.1987551 170.639556,23.6874837 C170.639556,26.1862655 178.412091,28.2119285 188,28.2119285 C197.587909,28.2119285 205.360444,26.1862655 205.360444,23.6874837 C205.360444,22.1987551 202.601537,20.8779628 198.343521,20.053433 C195.461377,20.615009 191.880277,20.9477165 188,20.9477165 C184.119724,20.9477165 180.538623,20.615009 177.656479,20.053433 Z M161.003423,43.1156984 C157.566839,44.4199919 155.56338,45.9873599 155.56338,47.673292 C155.56338,52.2123804 170.08575,55.8920386 188,55.8920386 C205.91425,55.8920386 220.43662,52.2123804 220.43662,47.673292 C220.43662,45.9873599 218.433161,44.4199919 214.996577,43.1156984 C208.207983,44.9679532 198.623049,46.1224215 188,46.1224215 C177.376951,46.1224215 167.792017,44.9679532 161.003423,43.1156984 Z M212.344333,59.7409951 C205.172375,60.7798069 196.860853,61.3737374 188,61.3737374 C179.139147,61.3737374 170.827625,60.7798069 163.655667,59.7409951 C163.441346,60.0818841 163.329895,60.4317935 163.329895,60.7884869 C163.329895,64.3393874 174.375077,67.217961 188,67.217961 C201.624923,67.217961 212.670105,64.3393874 212.670105,60.7884869 C212.670105,60.4317935 212.558654,60.0818841 212.344331,59.7409951 L212.344333,59.7409951 Z M173.129575,70.7049573 C171.549044,71.3868543 170.639556,72.1862561 170.639556,73.0410191 C170.639556,75.5398008 178.412091,77.5654638 188,77.5654638 C197.587909,77.5654638 205.360444,75.5398008 205.360444,73.0410191 C205.360444,72.1862561 204.450956,71.3868543 202.870425,70.7049573 C198.315085,71.2204028 193.286066,71.5062597 188,71.5062597 C182.713934,71.5062597 177.684915,71.2204028 173.129575,70.7049573 Z M198.937536,79.9642769 C195.608378,80.361607 191.903799,80.5831554 188,80.5831554 C184.096201,80.5831554 180.391622,80.361607 177.062464,79.9642769 C176.747783,80.2365166 176.578655,80.5251952 176.578655,80.8241685 C176.578655,82.468104 181.692165,83.800777 188,83.800777 C194.307835,83.800777 199.421345,82.468104 199.421345,80.8241685 C199.421345,80.5251952 199.252217,80.2365166 198.937536,79.9642769 Z M188,18.9623932 C194.307835,18.9623932 199.421345,17.6297201 199.421345,15.9857847 C199.421345,14.3418493 194.307835,13.0091763 188,13.0091763 C181.692165,13.0091763 176.578655,14.3418493 176.578655,15.9857847 C176.578655,17.6297201 181.692165,18.9623932 188,18.9623932 Z M188,7.07070707 C186.094229,7.07070707 184.549296,5.48787537 184.549296,3.53535354 C184.549296,1.58283169 186.094229,0 188,0 C189.905771,0 191.450704,1.58283169 191.450704,3.53535354 C191.450704,5.48787537 189.905771,7.07070707 188,7.07070707 Z M188,98 C186.094229,98 184.549296,96.4171683 184.549296,94.4646464 C184.549296,92.5121246 186.094229,90.9292928 188,90.9292928 C189.905771,90.9292928 191.450704,92.5121246 191.450704,94.4646464 C191.450704,96.4171683 189.905771,98 188,98 Z" id="skowak-logo-symbol" fill="url(#linearGradient-1)"></path>
            <path d="M8.11869792,188.266989 L0,194.050564 C1.42999793,197.04423 3.34819407,199.83022 5.75458844,202.408535 C8.1609828,204.986849 10.9786938,207.044015 14.2077214,208.580032 C17.4367489,210.116049 20.9425503,210.884058 24.7251255,210.884058 C27.4928634,210.884058 30.1568112,210.437359 32.7169687,209.543961 C35.2771263,208.650564 37.5720423,207.365325 39.6017168,205.688245 C41.6313913,204.011165 43.2343729,201.953999 44.4106615,199.516747 C45.5869501,197.079495 46.1750944,194.324852 46.1750944,191.252818 C46.1750944,188.353194 45.6907403,185.829737 44.722032,183.682448 C43.7533237,181.535158 42.477089,179.673913 40.8933279,178.098712 C39.3095667,176.52351 37.5489779,175.199087 35.6115613,174.125443 C33.6741448,173.051798 31.7367282,172.162319 29.7993117,171.457005 C26.3550156,170.234461 23.5526809,169.02759 21.3923077,167.836393 C19.2319345,166.645196 17.6481734,165.367794 16.6410243,164.004187 C15.6338752,162.64058 15.1303007,161.112399 15.1303007,159.419646 C15.1303007,157.554482 15.8414555,155.912668 17.2637653,154.494203 C18.6860751,153.075738 20.8887332,152.366506 23.8717396,152.366506 C26.0551773,152.366506 27.9579971,152.797531 29.5801991,153.659581 C31.202401,154.521632 32.6247108,155.654053 33.8471284,157.056844 C35.069546,158.459635 36.1036036,159.968223 36.9493013,161.582609 L45.7599337,156.504348 C44.6835912,154.200322 43.1728676,151.978583 41.2277629,149.83913 C39.2826581,147.699678 36.8954842,145.936393 34.066241,144.549275 C31.2369978,143.162158 27.9003359,142.468599 24.0562555,142.468599 C20.212175,142.468599 16.7601908,143.209179 13.7003027,144.690338 C10.6404147,146.171498 8.22633217,148.244337 6.45805516,150.908857 C4.68977815,153.573376 3.80563965,156.668921 3.80563965,160.195491 C3.80563965,163.283199 4.38225172,165.908535 5.53547585,168.071498 C6.68869999,170.234461 8.1609828,172.056522 9.95232429,173.537681 C11.7436658,175.018841 13.6272652,176.233548 15.6031226,177.181804 C17.5789799,178.130059 19.3587892,178.894149 20.9425503,179.474074 C23.6641593,180.477187 26.0590214,181.492056 28.1271367,182.51868 C30.195252,183.545303 31.8097657,184.795276 32.970678,186.268599 C34.1315903,187.741922 34.7120465,189.69329 34.7120465,192.122705 C34.7120465,194.740204 33.7894672,196.860064 31.9443086,198.482287 C30.0991499,200.104509 27.6850674,200.91562 24.702061,200.91562 C22.2879785,200.91562 20.0853204,200.390553 18.0940867,199.340419 C16.102853,198.290284 14.2961352,196.813043 12.6739333,194.908696 C11.0517313,193.004348 9.53331952,190.790446 8.11869792,188.266989 Z M57.2460461,143.644122 L57.2460461,209.47343 L68.4323202,209.47343 L68.4323202,143.644122 L57.2460461,143.644122 Z M92.4193823,143.644122 L65.1802282,174.795491 L93.5726064,209.47343 L106.973071,209.47343 L78.3269833,174.489855 L105.589202,143.644122 L92.4193823,143.644122 Z M121.580577,182.044552 C121.580577,178.522063 122.294534,175.404273 123.72245,172.691182 C125.150366,169.97809 127.127264,167.843373 129.653146,166.287029 C132.179027,164.730685 135.09332,163.952513 138.396026,163.952513 C141.793232,163.952513 144.742162,164.730685 147.242817,166.287029 C149.743471,167.843373 151.696544,169.97809 153.102036,172.691182 C154.507528,175.404273 155.210274,178.522063 155.210274,182.044552 C155.210274,185.544999 154.496517,188.657279 153.069001,191.381391 C151.641486,194.105503 149.671995,196.245731 147.160529,197.802075 C144.649064,199.358419 141.727562,200.136591 138.396026,200.136591 C135.09332,200.136591 132.179027,199.358419 129.653146,197.802075 C127.127264,196.245731 125.150366,194.105503 123.72245,191.381391 C122.294534,188.657279 121.580577,185.544999 121.580577,182.044552 Z M109.949831,182.044552 C109.949831,186.193986 110.650775,190.031988 112.052663,193.558558 C113.454551,197.085128 115.429647,200.14353 117.977952,202.733763 C120.526257,205.323996 123.537454,207.337488 127.011541,208.774238 C130.485629,210.210989 134.280457,210.929365 138.396026,210.929365 C142.540425,210.929365 146.342461,210.210989 149.802133,208.774238 C153.261806,207.337488 156.265594,205.323996 158.813499,202.733763 C161.361404,200.14353 163.3365,197.085128 164.738789,193.558558 C166.141077,190.031988 166.842221,186.193986 166.842221,182.044552 C166.842221,177.864913 166.135671,174.036095 164.722571,170.558097 C163.309471,167.080099 161.317757,164.068432 158.747429,161.523098 C156.1771,158.977763 153.167706,157.00366 149.719245,155.600787 C146.270785,154.197914 142.496378,153.496477 138.396026,153.496477 C134.368551,153.496477 130.623175,154.197914 127.159899,155.600787 C123.696623,157.00366 120.680021,158.977763 118.110093,161.523098 C115.540165,164.068432 113.537639,167.080099 112.102516,170.558097 C110.667392,174.036095 109.949831,177.864913 109.949831,182.044552 Z M216.639262,140.352657 L235.229235,187.702738 L250.313406,143.644122 L262.998872,143.644122 L236.590039,213 L216.639262,166.449275 L196.688484,213 L170.279651,143.644122 L182.965117,143.644122 L198.326062,187.702738 L216.639262,140.352657 Z M286.293999,140 L317.892341,209.47343 L305.552843,209.47343 L298.146,192.545 L274.388,192.545 L267.035156,209.47343 L254.695658,209.47343 L286.293999,140 Z M286.293999,162.264412 L277.499,183.188 L295.105,183.188 L286.293999,162.264412 Z M325.272975,143.644122 L325.272975,209.47343 L336.459249,209.47343 L336.459249,143.644122 L325.272975,143.644122 Z M360.446311,143.644122 L333.207157,174.795491 L361.599536,209.47343 L375,209.47343 L346.353912,174.489855 L373.616131,143.644122 L360.446311,143.644122 Z M117.992415,140.509393 L157.046116,140.509393 C158.150686,140.509393 159.046116,141.404824 159.046116,142.509393 L159.046116,144.778851 C159.046116,145.883421 158.150686,146.778851 157.046116,146.778851 L117.992415,146.778851 C116.887846,146.778851 115.992415,145.883421 115.992415,144.778851 L115.992415,142.509393 C115.992415,141.404824 116.887846,140.509393 117.992415,140.509393 Z" id="Combined-Shape" fill="url(#linearGradient-2)"></path>
        </g>
    </g>
</svg>